Coordinates
version=1
nRows=4
nColumns=63
inDegrees=yes

Units are S.I. units (second, meters, Newtons, ...)
If the header above contains a line with 'inDegrees', this indicates whether rotational values are in degrees (yes) or radians (no).

endheader
time	pelvis_tilt	pelvis_list	pelvis_rotation	pelvis_tx	pelvis_ty	pelvis_tz	hip_flexion_r	hip_adduction_r	hip_rotation_r	knee_angle_r	knee_angle_r_beta	ankle_angle_r	subtalar_angle_r	mtp_angle_r	hip_flexion_l	hip_adduction_l	hip_rotation_l	knee_angle_l	knee_angle_l_beta	ankle_angle_l	subtalar_angle_l	mtp_angle_l	L5_S1_Flex_Ext	L5_S1_Lat_Bending	L5_S1_axial_rotation	L4_L5_Flex_Ext	L4_L5_Lat_Bending	L4_L5_axial_rotation	L3_L4_Flex_Ext	L3_L4_Lat_Bending	L3_L4_axial_rotation	L2_L3_Flex_Ext	L2_L3_Lat_Bending	L2_L3_axial_rotation	L1_L2_Flex_Ext	L1_L2_Lat_Bending	L1_L2_axial_rotation	L1_T12_Flex_Ext	L1_T12_Lat_Bending	L1_T12_axial_rotation	Abs_r3	Abs_r2	Abs_r1	Abs_t1	Abs_t2	neck_flexion	neck_bending	neck_rotation	arm_flex_r	arm_add_r	arm_rot_r	elbow_flex_r	pro_sup_r	wrist_flex_r	wrist_dev_r	arm_flex_l	arm_add_l	arm_rot_l	elbow_flex_l	pro_sup_l	wrist_flex_l	wrist_dev_l
      8.35185185	      5.36688003	     -1.45425056	     90.11433735	      0.06524191	      0.97127713	      0.59869647	      5.76957480	     -0.87135076	     -0.16312707	      9.68396952	      0.16901715	     20.28481380	     15.77521597	      0.00000000	      2.86521177	     -5.71339960	      3.14652928	      6.19602838	      0.10814110	     27.15577733	      5.89130316	      0.00000000	     -0.37848328	      0.67593609	     -3.05630901	     -0.70288129	      0.89899500	     -3.24732833	     -0.62181018	      1.64347100	     -3.24732833	     -0.43256854	      1.64347100	     -2.67427039	     -0.35145957	      1.37836887	     -2.48325107	     -0.21626534	      1.04702500	     -2.29223176	     -2.70346820	      7.64632421	    -16.99827383	      0.00000000	      0.00000000	    -12.46622153	      9.16569681	    -26.01351829	    -33.75340464	    -28.03654068	    -13.95065583	    137.24115276	     72.76296272	     -0.25966731	      6.47496988	      1.16399155	    -14.04171560	     33.91964129	     73.43315318	     85.44331411	     -5.18453881	      8.45927751
      8.37037037	      5.36994241	     -1.21323572	     90.30818554	      0.06577291	      0.97227091	      0.59842266	      5.36982958	     -0.79627628	     -0.11692273	      9.43800448	      0.16472425	     19.73978292	     15.46567324	      0.00000000	      2.53472742	     -5.80257852	      2.68435892	      6.11951925	      0.10680576	     26.58414984	      6.61691960	      0.00000000	     -0.35576893	      0.59474196	     -2.78129668	     -0.66069847	      0.79100680	     -2.95512772	     -0.58449277	      1.44605560	     -2.95512772	     -0.40660831	      1.44605560	     -2.43363459	     -0.33036702	      1.21279780	     -2.25980355	     -0.20328636	      0.92125529	     -2.08597251	     -2.54122186	      6.72783998	    -15.46873772	      0.00000000	      0.00000000	    -13.12983088	      9.94410022	    -27.38262443	    -29.26808716	    -28.43624721	    -11.56444232	    143.26847401	     78.19440394	     -5.40965474	      1.88493568	      2.82676848	    -13.85756077	     37.27909414	     72.54909157	     84.39062777	     -4.93375438	     10.04517571
      8.38888889	      5.20942253	     -0.94627882	     90.31716472	      0.06707679	      0.97394027	      0.59844623	      5.00327582	     -0.83156147	      0.25951600	      9.22039686	      0.16092628	     19.15787680	     15.00780334	      0.00000000	      2.14440752	     -5.75978557	      2.22699855	      6.01576141	      0.10499484	     25.66140493	      7.05778406	      0.00000000	     -0.35681567	      0.46473934	     -2.46854363	     -0.66264238	      0.61810333	     -2.62282760	     -0.58621246	      1.12996724	     -2.62282760	     -0.40780463	      1.12996724	     -2.15997567	     -0.33133903	      0.94769647	     -2.00569170	     -0.20388447	      0.71988124	     -1.85140772	     -2.54869864	      5.25722440	    -13.72929909	      0.00000000	      0.00000000	    -13.75196647	     11.09907004	    -29.47768026	    -23.01897647	    -28.67664152	    -10.13539543	    147.47960213	     84.65062345	     -7.36211373	     -0.69385672	      4.74271435	    -13.57853100	     40.77858321	     70.25148608	     85.14998774	     -3.61854120	     11.34081002
      8.40740741	      5.00945193	     -0.63522631	     90.13913441	      0.06863264	      0.97603310	      0.59906833	      4.71839113	     -0.92197351	      0.48990283	      9.10744499	      0.15895490	     18.47569223	     14.84305402	      0.00000000	      1.73666093	     -5.67045982	      1.83730920	      5.98549448	      0.10446659	     24.65762769	      7.07499787	      0.00000000	     -0.38801858	      0.31698531	     -2.36889389	     -0.72058931	      0.42159046	     -2.51694976	     -0.63747573	      0.77071808	     -2.51694976	     -0.44346644	      0.77071808	     -2.07278215	     -0.36031406	      0.64639645	     -1.92472628	     -0.22171382	      0.49101025	     -1.77667042	     -2.77157795	      3.58580123	    -13.17507714	      0.00000000	      0.00000000	    -14.50080128	     11.78588198	    -30.83946843	    -14.00119231	    -29.68680934	     -7.92103025	    149.12160545	     87.15472738	     -6.62915332	     -2.55657175	      5.93992329	    -13.33317122	     43.07611092	     67.19221464	     86.17104731	     -2.61491349	     12.01533416
